<svg xmlns="http://www.w3.org/2000/svg" viewBox="0 0 154.99 184.43">
    <defs>
        <style>.a,.b{fill:#8ebfa2;}.b{stroke:#eee;stroke-miterlimit:10;}</style>
    </defs>
    <path class="a" d="M133.48,102c-1.3,3-3.85,1.83-6,1.85a1.14,1.14,0,0,1-1.29-1.41c.15-1.16,1-.82,1.68-.61,2.82.82,4.49-.91,5.1-3.13.78-2.84,1.22-6.07-2.14-7.87-2.51-1.34-2.92-2.64-.67-4.63C131.52,85,130,82,132.7,81.44c-1.89-1.66-.64-2.18.92-2.65,0,0-.15-.65-.23-1a19.21,19.21,0,0,1-.09-6c.26-3.1.66-6.27-.11-9.31-2.39-9.42-3.32-19.35-9.08-27.67a5.42,5.42,0,0,1-.57-1.38,21.35,21.35,0,0,0-6.89-9.6A192.51,192.51,0,0,1,97,6.14C94.47,3.38,90.65,1.81,87,.48c-3.37-1.24-4.81-.11-5.51,3.6-.1.53-.32,1-.73,2.32a29.59,29.59,0,0,0-.6-3,3,3,0,0,0-2.31-2.21c-1.72-.11-1.1,1.65-1.36,2.58A50.73,50.73,0,0,0,75.61,9C73.73,7.5,75.34,5.17,74,3.89c-4.34,2.59-3.19,8-6.35,11.41-1.45-2.05-2.71-3.87-4-5.66-.83-1.15-1.91-3-3.29-1.46-1.19,1.34-3.87,3.43-1.87,5.3,5,4.71,8.7,11.86,17.49,10.56-.53,1.17-1.07,2.92-1.63,2.54-2.55-1.71-5.55,0-8.15-1.56-3.33-2-5.09-7.87-10.71-4.75-.09.05-.36-.24-.55-.37-2.77-2-2.78-2-4.13,1.14-3.72,8.78-3.72,18.5-6.92,27.43-1.18,3.27-.08,6.93-1.17,10.34-.45,1.4.24,2.51,2.06,2.82,2.76.49,2.86,1.86,1.65,4.2S42.21,70,43.4,73.06c1.57,4.06,1.73,8.6,4.47,12.63,1-3,.54-5.9.76-8.71.24-3.13-.8-6.74,1.92-9.18,4.42-4,8.77-8.09,15.08-9.08,6.63-1,12.85-3.66,19.27-5.52,6.58-1.9,12.57-5.23,19.37-6.91,4.7-1.15,5.31.85,6.84,3.27,1.2,1.89-.2,3.76-1.06,5.17-1.76,2.88.76,4.32,2,5.16s1.33-1.89,2.22-2.83c.33-.35.6-.82,1.17-.35-.54,3.35-.37,3.26,1.58,5.62a4.56,4.56,0,0,1,2.23.83c.21-.1.31-.16.34-.13,4.93,3.33,7.66,12.9,5.22,18.47a2.46,2.46,0,0,0-.08,2.46,5,5,0,0,1,.55,4.68c-1.14,2.56-3-.8-4.73.53,1.64,1.19,1.73,2.71.1,3.71-2.83,1.74-3.22,5-5.75,7.34,2.4.06,4.24.44,4.77-2,1.1,1.63-.2,2.81-.22,4.07,1.13.39,2-1.56,2.73-.32a3.12,3.12,0,0,1-.71,2.88c-3.44,3.07-1.32,7-1.71,10.46-.08.67,1.41,1.36.07,2.14-2.16,1.25-1,3.31-1.64,5.11,2-.48,1.57-2.11,2.22-3.07,1.06.54.09,2,1.62,2.67.38-1.83.66-3.6,1.13-5.31.52-1.95,1.44-3.86,3.5-4.44,5.59-1.58,4.92-7.64,9.14-10.59C134.09,101.22,133.66,101.56,133.48,102ZM46.71,49.57a3.07,3.07,0,0,1-.24-1A1.51,1.51,0,0,1,48,47.16c1.55-.08,3.11,0,4.69,0C51.87,51,48.37,48,46.71,49.57Zm10.95,8.1c.05-.69,1.07-2-1-3.55l3.78.71c.4-.54.05-.72-.23-.95-2.69-2.18-2.11-5.35-2.31-8.22a2.53,2.53,0,0,1,.59-2,5.43,5.43,0,0,1,.9-3.1c.08-1.49.88-3.42-.9-3.83-2.08-.48-3,2.19-4.42,3.45-1.71,1.53-2.06,2-4.46,1.72,2.17-2,6.2-3.55,5.28-6.26-1.05-3.1,1.7-2.79,2.19-4.3s1.78-1.91,3.28-2.22a3.74,3.74,0,0,1,.76-.24,3.72,3.72,0,0,1,1.62-.36h.06a1.7,1.7,0,0,1,1.09-.39c2.33.28,4.74,0,7,.63a1.84,1.84,0,0,1,.47.22c.28-.13.59,0,1,.6l.26,0a1.89,1.89,0,0,1,1,.8l0,0,0,.07.08.09a2,2,0,0,1,.61.55s0,0,0,.06h0l0,0h0l.12.15c0,.05.07.08.1.13.2.17.4.35.61.51L76,31.9h0c.54-.23,1.1-.45,1.65-.64,0-.68.09-1.35.16-2a1.9,1.9,0,0,1,.18-1.9,3.07,3.07,0,0,1,1.19-2c1.6-1.43,2.92-.45,4.29.54,3,2.17,5.81,5.35,10.21,3.09.24-.12.68.13,1,.2-1.24,2.38,1.28,3.13,1.91,4.67.93,2.29,2,3.81,4.36,4.61.75.26,1.28,1.12,2,1.53a15.18,15.18,0,0,0,2.72.8C90,48.44,74.37,54.38,57.66,57.67Zm68.62,39c.26-.93.42-1.88.67-3,1.31.17,1.59,1.13,2.1,1.76,1.28,1.56-.28,2.4-1.06,3.39-.45.57-1.08,1.43-1.78.88C125.06,98.83,126,97.72,126.28,96.7Zm1,13.72c-1.4-.08-1.36-1-1.25-2.1s-.06-2,1.39-2.07,1.81,1,2,2.14C129.19,109.62,128.64,110.49,127.25,110.42Z"/>
    <path class="a" d="M77.54,148.63c-4.62.26-7.65-2.38-10.2-5.75-1.38-1.83-3.36-3.22-4.46-6.06,5.57,3.64,9.9,8.83,17,7.23,2.67,3,12.81,3,15.74.24-5.09-.91-10.45,1.54-15.83-.14,3.41-3.51,7.57-3,11.71-2,2,.48,3.54.32,4-1.89.35-1.47,1.59-1.73,2.5-2.51,2.55-2.2,5.57-2.48,8.69-3.15,4.12-.88,8.21-2.59,10.44-6.8a3.23,3.23,0,0,1,1.11-1,4.61,4.61,0,0,1,1-.4c1,5.58.34,11.82,6.41,15.2.44.24.83.69,1.28.75,3.85.48,2.64,2.61,1.47,4.6a8.73,8.73,0,0,0,4.38,12.86c3.7,1.46,7.48,2.71,11.19,4.13s7.38,2.91,11,4.7c-5.36-1.34-11.12-.62-16.17-3.43a20.54,20.54,0,0,0-3-1.51c-1.43-.49-3-2.22-4.35-.84s-.28,3.25.58,4.79c.4.74,1.2,1.43.39,2.34-.61.7-1.39.47-2.05.14-1.35-.65-2.68-.12-4-.16-2.64-.08-3.63-2.07-2-4.08.7-.87.26-1.28-.06-1.92s-.84-1.23-1.74-1c-.65.16-.7.65-1,1.17-1,1.79-1.79,3.13-.27,5.27.6.83.59,3.76-2.76,3.05-1.34-.28-2.92,1.28-4.18-.87-.33-.55-.84.84-1.28,1.35-2.3,2.7-3.07,2.52-4.42-.92a17.63,17.63,0,0,0-1.44-3.06c0,1.21-3.86,2.24.07,3.69.93.34-.52,5.63-1.63,6.1-2.23.95-2.09-.84-2.4-2.12-.84-3.45-2-2.81-5.33-3.62-3-.71-5.35-.11-8,.1-.85.07-2.8,0-2.45.66.71,1.37-1.21,3,.73,4,1.73.89,2.72,2.1,1.54,4.18-1.35,2.38-2.67,2.93-5.77,2.14.23-1,1.21-1.23,1.94-1.56,1.26-.57,2.23-1.18,1.76-2.77-.41-1.43-1.57-1.33-2.72-1.34-4.8,0-4.74,0-4.34-5.19.19-2.45-.8-5.23,2.9-6.76-4.58-1-4.7-2.85-3.16-6.55s-1-7.71-2.7-11.32c1.81.41,3.3,2.19,5.7,1.31-3.55-3.1-7.88-3.74-11.85-5.24A12.79,12.79,0,0,0,77.54,148.63ZM94.16,155c1-1,3.14-.9,3.38-2.9.12-1-.69-1.25-1.48-1.1-1.47.28-3,.67-3.17,2.52C92.82,154.24,93,155,94.16,155Zm.9-7.32c-2.85.28-5.81.15-8.27,1.93C89.7,149.6,92.58,149.52,95.06,147.67ZM84.86,157c1-.59,1.26-1.75,1.49-2.89.15-.72-.24-1.24-1-1.16-1.34.15-2.33.79-2.32,2.31C83.05,156.29,83.68,156.79,84.86,157Zm3.59,12.33c4.29-2.36,4.29-2.36,4.62-4.56C92.41,167.11,88.36,165.49,88.45,169.33Z"/>
    <path class="a" d="M57.4,142.7c-4.18,4.18-3.94,8.22-.59,12.76A50.35,50.35,0,0,0,70,167.8c2.58,1.69,5.09,2.28,7.4-.93.93,2.6,2.64,4.79,1,7.94-4-4.13-9.6-5.58-13.76-9.31a1.27,1.27,0,0,0-.64-.37,8,8,0,0,1-7.31-5.74c-.39-1.13-1.88-1.07-3-.74-6.71,2-13.74,2.95-19.84,6.81-5.07,3.21-11.21,3.79-16.51,6.63-.57-1.62.6-1.88,1.4-2.3a141.13,141.13,0,0,1,13.46-6.34c5.65-2.27,10.37-6.17,15-10.08,3.28-2.77,4.83-6,2.16-10.45,2.3,1.18,4-.23,5.88-.53.75-.12,1.63-1.16,2,.41Z"/>
    <path class="a" d="M57.3,142.8c.69-.36,1.55-.68,2,.17,1.35,2.83,4.15,5.09,4.79,7.77.35,1.46,2.1,5.09-1.52,7-2.64-4.69-4.69-9.57-5.12-15.05Z"/>
    <path class="a" d="M43.29,95.91c.15-.85.25-1.71.47-2.54a2.87,2.87,0,0,1,3.41-2.12c1.75.44.65,1.91.27,3-.77,2.27-1.43,4.55,1,6.35a1,1,0,0,1,.15,1.62c-.39.41-1,.56-1.28.13C46,100.27,42.2,99.6,43.29,95.91Z"/>
    <path class="a" d="M135.94,97.71c.08-4.95.45-9.17-.92-13.22a1.67,1.67,0,0,1,.77-2.23c.68-.38,1.54-.69,2.1-.18.79.71,0,1.61-.16,2.43C137.12,88.63,138.19,93,135.94,97.71Z"/>
    <path class="a" d="M9.86,174.82A20.34,20.34,0,0,0,3,179.1c-.71.67-2.27,1.34-2.86,0-.49-1.12.89-1.56,1.83-1.82C4.61,176.49,6.77,174.21,9.86,174.82Z"/>
    <polygon class="b" points="85.21 41.61 79.08 40.38 74.59 44.73 73.86 38.52 68.33 35.59 74.02 32.98 75.1 26.82 79.33 31.42 85.53 30.54 82.46 35.99 85.21 41.61"/>
</svg>